<?xml version="1.0" encoding="iso-8859-1"?>
<!-- Generator: Adobe Illustrator 18.1.1, SVG Export Plug-In . SVG Version: 6.00 Build 0)  -->
<svg version="1.1" id="Capa_1" xmlns="http://www.w3.org/2000/svg" xmlns:xlink="http://www.w3.org/1999/xlink" x="0px" y="0px"
	 viewBox="0 0 86.336 86.336" style="enable-background:new 0 0 86.336 86.336;" xml:space="preserve">
<g>
	<path style="fill:#010002;" d="M12.691,43.206l1.056-3.267h6.088l1.092,3.267h1.779h1.779L18.8,27.144h-1.95h-1.943L9.223,43.206
		h1.739C10.962,43.206,12.691,43.206,12.691,43.206z M16.81,30.723l2.133,6.449h-4.259L16.81,30.723z M26.931,27.248h10.808v3.579
		H26.931V27.248z M26.931,36.839h10.808v3.579H26.931V36.839z M8.485,46.434h29.254v3.579H8.485V46.434z M8.485,56.032h29.254v3.579
		H8.485V56.032z M86.336,69.639V15.956h-4.935V7.75l-38.419,8.206H0v53.683h36.01v5.368h-7.158v3.579h28.631v-3.579h-7.158v-5.368
		H86.336z M77.833,12.177v3.783v3.579v39.085l-32.875,7.015V19.535v-0.344l15.153-3.235L77.833,12.177z M3.579,66.06V19.535h37.8
		V66.06H3.579z M50.408,30.733l-1.124-3.396l23.57-7.784l1.124,3.396L50.408,30.733z M50.408,40.332l-1.124-3.396l23.57-7.784
		l1.124,3.396L50.408,40.332z M50.408,49.923l-1.124-3.393l23.556-7.784l1.124,3.396L50.408,49.923z M50.408,59.514l-1.124-3.393
		l23.556-7.788l1.124,3.396L50.408,59.514z"/>
</g>
<g>
</g>
<g>
</g>
<g>
</g>
<g>
</g>
<g>
</g>
<g>
</g>
<g>
</g>
<g>
</g>
<g>
</g>
<g>
</g>
<g>
</g>
<g>
</g>
<g>
</g>
<g>
</g>
<g>
</g>
</svg>
